<?xml version="1.0" encoding="UTF-8" standalone="no"?>
<!DOCTYPE svg PUBLIC "-//W3C//DTD SVG 1.1//EN" "http://www.w3.org/Graphics/SVG/1.1/DTD/svg11.dtd">
<svg width="100%" height="100%" viewBox="0 0 300 100" version="1.1" xmlns="http://www.w3.org/2000/svg" xmlns:xlink="http://www.w3.org/1999/xlink" xml:space="preserve" xmlns:serif="http://www.serif.com/" style="fill-rule:evenodd;clip-rule:evenodd;stroke-linejoin:round;stroke-miterlimit:2;">
    <g transform="matrix(1,0,0,0.333333,0,0)">
        <rect x="0" y="0" width="300" height="300" style="fill:rgb(236,233,244);"/>
    </g>
    <g id="_2f0fdef4-6049-4d76-9884-a87cbff72718" serif:id="2f0fdef4-6049-4d76-9884-a87cbff72718" transform="matrix(6.43802,0,0,6.43802,138.321,6.0283)">
        <path d="M0,6.41L0,1.98L4.89,1.98L4.89,3.6L1.94,3.6L1.94,5.91L4.48,5.91L4.52,5.93L4.5,5.97C4.487,6.297 4.48,6.487 4.48,6.54L4.2,6.54L4.2,6.56C4.2,6.673 4.19,6.923 4.17,7.31L4.44,7.31C4.44,7.497 4.423,7.59 4.39,7.59L2.6,7.59L2.6,7.92L1.66,7.92L1.66,8.1L1.94,8.1L1.94,8.96L2.87,8.96L2.87,9.11L1.94,9.11L1.94,11.47L1.92,11.58L0.92,11.58L0.92,11.73L0.03,11.73C0.01,11.73 0,11.72 0,11.7L0,11.45L0.01,11.29L0.49,11.29L0.49,11.04L0,11.04L0,10.1L0.23,10.1L0.23,6.66L0.62,6.66L0.62,6.41L0,6.41ZM1.92,8.96L1.03,8.96L1.03,9.11L1.92,9.11L1.92,8.96ZM5.47,1.93L7.31,1.93C7.33,1.937 7.34,1.95 7.34,1.97L7.34,6.73C7.34,6.75 7.33,6.76 7.31,6.76L7.1,6.76L7.1,11.7C7.1,11.72 7.087,11.73 7.06,11.73L5.47,11.73C5.443,11.73 5.43,11.72 5.43,11.7L5.43,6.64L4.94,6.64C4.92,6.64 4.91,6.63 4.91,6.61L4.91,6.4C4.917,6.373 4.927,6.36 4.94,6.36L5.43,6.36L5.43,1.97C5.437,1.943 5.45,1.93 5.47,1.93ZM6.39,6.36L5.45,6.36L5.45,6.64L6.39,6.64L6.39,6.36ZM7.64,10.6L7.64,2L9.56,2L9.56,3.83C9.56,4.437 9.547,5.093 9.52,5.8L9.52,5.82L9.54,5.82C9.7,5.52 10.13,4.75 10.83,3.51C11.197,2.883 11.38,2.41 11.38,2.09L11.38,2L13.34,2L13.34,2.04C13.34,2.667 13.083,3.35 12.57,4.09L11.41,5.78L12.55,8.21L13.58,8.21L13.58,8.5L12.42,8.5L12.42,8.52C12.607,8.927 12.727,9.167 12.78,9.24L13,9.24L13,10.12L13.29,10.12L13.29,11.72C12.957,11.727 12.71,11.73 12.55,11.73L12.08,11.73C11.913,11.73 11.683,11.727 11.39,11.72L11.39,10.65L10.96,10.65L10.96,9.24L10.72,9.24L10.46,8.5L12.41,8.5L12.41,8.21L10.62,8.21C10.62,8.19 10.517,7.863 10.31,7.23L10.29,7.23C10.183,7.437 9.967,7.763 9.64,8.21L10.46,8.21L10.46,8.5L9.56,8.5L9.56,8.98L9.44,8.98L9.44,11.2L9.56,11.2L9.56,11.7C9.56,11.72 9.547,11.73 9.52,11.73L7.68,11.73C7.653,11.73 7.64,11.72 7.64,11.7L7.64,10.93L8.51,10.93L8.51,10.6L7.64,10.6ZM9.63,8.21L8.43,8.21L8.43,8.5L9.54,8.5C9.54,8.467 9.57,8.37 9.63,8.21ZM16.69,1.93L17.88,1.93L17.88,6L17.38,6L17.38,6.17L17.88,6.17L17.88,8.67L17.45,8.67L17.45,8.85L18.16,8.85L18.16,11.73L16.99,11.73L16.99,11.6L15.98,11.6L15.98,10.73L16.15,10.73L16.15,8.85L15.98,8.85L15.98,7.51L16.39,7.51L16.39,7.26L15.98,7.26L15.98,4.4C15.187,4.753 14.74,4.93 14.64,4.93C14.367,4.15 14.193,3.64 14.12,3.4L14.13,3.4C14.93,3.14 15.783,2.65 16.69,1.93ZM17.88,6.17L17.88,6L18.9,6L18.9,6.17L17.88,6.17Z" style="fill:rgb(40,35,53);fill-rule:nonzero;"/>
    </g>
    <g id="f4776948-e48a-48a5-845d-1ea967a543bf" transform="matrix(1.02673,0,0,1.02673,31.7862,-0.425331)">
        <path d="M87.4,24.4L51.6,3.7C50,2.8 48,2.8 46.4,3.7L10.1,24.6C8.4,25.5 8,27.3 8,29.3L8,68.8C8,70.7 8.5,72.4 10.2,73.3L46.6,94.5C47.4,95 48.2,95.2 49.1,95.2L49.3,95.2C50.2,95.2 51.1,95 51.9,94.5L88.5,73.3C90.1,72.4 91.1,70.6 91.1,68.8L91.1,29.3C91,27 89.5,25.1 87.4,24.4ZM49,14.2L74.8,29.1L49,44L23.2,29.1L49,14.2ZM18,65.8L18,37.9L43,53L43,81L18,65.8ZM53,81L53,52.9L81,37.8L81,65.9L53,81Z" style="fill:url(#_Linear1);fill-rule:nonzero;"/>
    </g>
    <defs>
        <linearGradient id="_Linear1" x1="0" y1="0" x2="1" y2="0" gradientUnits="userSpaceOnUse" gradientTransform="matrix(75.3142,35.1196,-35.1196,75.3142,5.97204,6.12253)"><stop offset="0" style="stop-color:rgb(66,47,117);stop-opacity:1"/><stop offset="1" style="stop-color:rgb(192,179,236);stop-opacity:1"/></linearGradient>
    </defs>
</svg>
